<svg xmlns="http://www.w3.org/2000/svg" viewBox="0 0 77.297 77.297">
  <defs>
    <style>
      .cls-1 {
        fill: #fff;
      }

      .cls-2 {
        fill: none;
        stroke: #fff;
        stroke-miterlimit: 10;
        stroke-width: 3px;
      }
    </style>
  </defs>
  <g id="analytics" transform="translate(1.5 1.5)">
    <g id="Group_7" data-name="Group 7" transform="translate(13.562 18.502)">
      <path id="Path_290" data-name="Path 290" class="cls-1" d="M39.732,81.369c1.987.028,4.222.275,4.446-2.156.275-2.959.051-6.074.073-9.056.011-1.437.82-4.794-.977-5.479-1.022-.387-2.689-.2-3.8-.32a21.9,21.9,0,0,0-3.211-.1c-1.892.056-2.841.163-2.846,2.218-.011,2.9-.258,5.794-.236,8.7-.112,1.336-.337,4.02.415,5.159C34.718,82.031,38.132,81.347,39.732,81.369ZM36.032,65.7a21.875,21.875,0,0,1,4.452.236c.629.062,1.942-.168,2.341.331.337.421-.011,2.695-.011,3.2-.011,1.746-.034,3.486-.045,5.232-.011,1.067-.017,2.133-.022,3.206-.011,1.774-.556,2.083-2.369,2.06-1.095-.011-3.374.387-4.688-.079A7.855,7.855,0,0,0,36.7,78.871c.438-.533-.32-1.3-.764-.764a7.5,7.5,0,0,1-1.112,1.084.715.715,0,0,1-.039-.067,5.2,5.2,0,0,1-.253-1.712c.6-.516,1.2-1.033,1.791-1.549.528-.455-.241-1.213-.764-.764l-1,.865c.017-.3.039-.573.056-.792-.006-.32.006-.64.011-.954.713-.679,1.454-1.331,2.229-1.942.545-.432-.225-1.19-.764-.764-.483.382-.954.78-1.415,1.19.022-.4.039-.814.067-1.218l1.965-1.611c.539-.438-.23-1.2-.764-.764l-1.123.921c.011-.241.028-.483.039-.724.006-.191.006-.387.006-.578.573-.421,1.145-.842,1.718-1.269.55-.41.017-1.342-.545-.932-.4.292-.792.584-1.19.876,0-.185.006-.371.022-.55C34.954,65.84,34.971,65.812,36.032,65.7Z" transform="translate(-28.906 -47.519)"/>
      <path id="Path_291" data-name="Path 291" class="cls-1" d="M60.254,74.331c.707,1.622,2.931,1.252,4.345,1.218,1.465-.039,4.531.511,5.777-.444s.584-4.345.589-5.687q.025-4.817.045-9.639c.006-1.566.017-3.127.022-4.693.006-.724.236-2.01-.2-2.672-.764-1.157-3.593-.769-4.778-.9-1.224-.14-4.2-.556-5.305.264-1.168.87-.516,4.037-.545,5.283-.079,3.346-.292,6.7-.253,10.049A32.828,32.828,0,0,0,60,71.244,9.854,9.854,0,0,0,60.254,74.331Zm1.359-21.137c.668-.994,4.424-.213,5.373-.107,1.072.124,2.212-.236,2.622.707.365.842-.017,2.852-.022,3.75q-.025,4.227-.039,8.46-.008,2.072-.022,4.143c-.006.73.387,2.975-.034,3.587s-3.862.6-5.749.494L65.307,73.1c.556-.4.022-1.336-.545-.932-.853.618-1.707,1.229-2.56,1.847a1.108,1.108,0,0,1-.685-.831q1.558-1.179,3.043-2.448c.528-.455-.236-1.213-.764-.764q-1.154.985-2.352,1.909c0-.208.006-.427-.006-.64s-.022-.438-.034-.651a19.611,19.611,0,0,1,3.166-2.818c.561-.4.022-1.336-.545-.932a21.863,21.863,0,0,0-2.678,2.251c-.006-.376-.006-.752.006-1.128a24.363,24.363,0,0,1,2.7-2.515c.545-.432-.225-1.19-.764-.764a23.57,23.57,0,0,0-1.9,1.69c0-.567.006-1.14.011-1.707a14.765,14.765,0,0,1,2.538-2.117c.578-.376.039-1.314-.545-.932a15.587,15.587,0,0,0-1.959,1.516c.011-.444.028-.893.045-1.336a15.009,15.009,0,0,1,2.588-2.218c.573-.387.034-1.319-.545-.932a17.385,17.385,0,0,0-1.987,1.578c.006-.219.017-.444.022-.662.006-.236.017-.472.022-.713a11.664,11.664,0,0,1,2.352-2.2c.567-.393.028-1.331-.545-.932A12.572,12.572,0,0,0,61.641,57.2c.011-.348.011-.7.017-1.039A13.652,13.652,0,0,1,63.7,54.429c.567-.393.028-1.325-.545-.932a15.62,15.62,0,0,0-1.549,1.224A3.629,3.629,0,0,1,61.613,53.194Z" transform="translate(-40.677 -41.835)"/>
      <path id="Path_292" data-name="Path 292" class="cls-1" d="M87.491,65.689c.1,1.157.23,1.864,1.387,2.313a12.01,12.01,0,0,0,3.834.32,10.457,10.457,0,0,0,4.525-.466c1.83-.814,1.084-3.874,1.089-5.6q.025-5.3.056-10.594.025-5.364.056-10.734c.006-1.521.786-5.288-.982-5.957-1.229-.466-3.127-.286-4.463-.4a13.573,13.573,0,0,0-4.182.1c-1.909.522-1.162,3.262-1.173,4.834-.045,6.737-.382,13.485-.275,20.228A40.672,40.672,0,0,0,87.491,65.689Zm1.555-28.924c.269-1.134,2.313-.848,3.413-.8a15.949,15.949,0,0,1,3.958.348c.865.4.612,1.151.606,2.167q-.017,3.68-.039,7.36-.042,8.556-.09,17.112c-.006.78.32,2.481-.006,3.189-.528,1.145-3.155.775-4.171.741-.59-.017-1.28.039-1.914.006.219-.2.438-.4.64-.629.466-.511-.292-1.274-.764-.764a9.8,9.8,0,0,1-1.145,1.067,1.3,1.3,0,0,1-.3-.258c.505-.567,1.033-1.117,1.589-1.634.505-.477-.258-1.235-.764-.764-.427.4-.831.814-1.23,1.241-.051-.326-.09-.668-.118-1.016l1.892-1.555c.539-.444-.23-1.2-.764-.764-.393.32-.78.646-1.173.966,0-.219.006-.438.011-.657.954-.707,1.9-1.437,2.818-2.19.539-.438-.23-1.2-.764-.764-.657.533-1.325,1.05-1.993,1.561.022-.348.045-.691.067-1.011v-.511A22.193,22.193,0,0,1,91.1,57.4c.567-.387.034-1.325-.545-.932-.606.415-1.185.865-1.752,1.336,0-.382-.006-.769-.006-1.151.657-.5,1.314-1,1.954-1.516.539-.438-.23-1.2-.764-.764-.387.314-.786.612-1.179.921.006-.427.011-.859.017-1.286A18.932,18.932,0,0,1,91.1,52.159c.567-.393.028-1.325-.545-.932a19.584,19.584,0,0,0-1.707,1.331c.011-.634.028-1.263.039-1.9A19.453,19.453,0,0,1,90.5,49.3a.552.552,0,0,0,.191-.735.54.54,0,0,0-.735-.191c-.354.264-.7.533-1.033.814l.017-.893a24.952,24.952,0,0,1,2.538-1.7.54.54,0,0,0-.545-.932c-.679.393-1.331.82-1.965,1.274.011-.427.017-.853.028-1.28v-.146c.612-.545,1.224-1.095,1.836-1.639.516-.466-.247-1.224-.764-.764-.348.314-.7.623-1.044.938.011-.539.017-1.078.028-1.622a16.078,16.078,0,0,1,1.555-1.409.54.54,0,0,0-.764-.764c-.269.208-.522.432-.78.657.006-.466.011-.938.011-1.4.7-.528,1.381-1.078,2.038-1.662.522-.46-.247-1.224-.764-.764-.421.376-.859.735-1.3,1.089A5.142,5.142,0,0,1,89.046,36.766Z" transform="translate(-52.694 -34.456)"/>
      <path id="Path_293" data-name="Path 293" class="cls-1" d="M72.138,70.264c-7.085.275-14.176.3-21.261.157-6.72-.135-13.446-.618-20.171-.5-.691.011-2.262.3-2.779-.034-.623-.4-.578-1.954-.606-2.554q-.109-2.257-.168-4.514c-.073-2.987-.073-5.968-.034-8.954.067-6.091.191-12.177.067-18.268a.719.719,0,0,0-1.437,0c.135,6.7-.039,13.39-.084,20.087-.022,3.183.006,6.372.129,9.555.073,1.914-.584,5.311,1.757,6.041a13.047,13.047,0,0,0,3.941.067c1.74-.034,3.464-.022,5.21.051,3.818.157,7.63.3,11.447.4,8,.208,16.006.213,24-.1C73.059,71.662,73.064,70.225,72.138,70.264Z" transform="translate(-25.657 -34.652)"/>
    </g>
    <circle id="Ellipse_44" data-name="Ellipse 44" class="cls-2" cx="37.148" cy="37.148" r="37.148" transform="translate(0 0)"/>
  </g>
</svg>
