<svg id="icono_ubicacion" xmlns="http://www.w3.org/2000/svg" viewBox="0 0 24.598 48.66">
  <defs>
    <style>
      .cls-1 {
        fill: #5d5d5d;
      }
    </style>
  </defs>
  <path id="Path_690" data-name="Path 690" class="cls-1" d="M23.026,6.9C20.471,2.038,14.858-1.079,9.338.348,4.777,1.284.734,4.993.1,9.719A12.18,12.18,0,0,0,6.137,21.766a12.963,12.963,0,0,0,4.178,1.427,44.475,44.475,0,0,0,.455,4.681c-1.311,1.083-1.253,3.589-1.391,5.118a91.3,91.3,0,0,0,.089,10.063c.071,1.534-.049,3.923,1.373,4.949a6.04,6.04,0,0,0,5.1.174c1.641-1.012,1.761-3.562,1.743-5.239-.031-3.406-.156-6.942-.531-10.326-.192-1.721-.143-3.955-1.788-4.958-.143-1.5-.067-3.014-.183-4.521a13.055,13.055,0,0,0,5.5-2.408C25.2,17.267,25.558,11.73,23.026,6.9ZM15.892,33.447a79.333,79.333,0,0,1,.446,10.335c-.071,1.3-.134,2.336-1.275,3.023a3.347,3.347,0,0,1-2.6.3c-.031-.009-.058-.022-.094-.031.134-.062.268-.134.406-.187a.521.521,0,0,0,.352-.615.505.505,0,0,0-.615-.352,9.852,9.852,0,0,0-1.1.508,2.1,2.1,0,0,1-.312-.584,24.112,24.112,0,0,1,1.993-1.422c.544-.348.04-1.217-.508-.865-.584.375-1.15.78-1.7,1.2q-.033-.354-.04-.722,1.01-.7,2.024-1.391c.531-.366.027-1.235-.508-.865L10.8,42.85c0-.236-.013-.477-.022-.713a15.418,15.418,0,0,1,1.971-1.6c.531-.361.031-1.231-.508-.865a17.345,17.345,0,0,0-1.511,1.155c-.018-.388-.031-.776-.049-1.159a18.3,18.3,0,0,1,2-1.351.5.5,0,0,0-.508-.865c-.531.312-1.039.655-1.538,1.017-.009-.214-.013-.432-.018-.646.642-.441,1.288-.883,1.93-1.324.531-.361.027-1.231-.508-.865l-1.449.994v-.642a.522.522,0,0,0,.129-.1,11.8,11.8,0,0,1,2.2-1.85c.539-.352.036-1.217-.508-.865a12.992,12.992,0,0,0-1.792,1.4c.009-.268.027-.535.04-.8a11.9,11.9,0,0,1,2.39-1.529c.58-.281.071-1.146-.508-.865a12.446,12.446,0,0,0-1.788,1.066c.018-.25.04-.508.067-.762a12.648,12.648,0,0,1,1.89-1.1c.584-.272.076-1.137-.508-.865-.388.183-.762.383-1.128.6a2.269,2.269,0,0,1,1.98-1.783C15.7,28.177,15.75,31.655,15.892,33.447Zm-1.9-6.255a5.211,5.211,0,0,0-1.966.089c-.205-1.3-.281-2.622-.366-3.932a13.92,13.92,0,0,0,2.2-.036C13.944,24.606,13.9,25.9,13.989,27.192Zm-.415-5.185A11.137,11.137,0,0,1,1.581,13.5,10.038,10.038,0,0,1,9.691,1.636c5.8-1.5,11.2,2.564,13.023,7.882C24.956,16.059,20.07,21.5,13.574,22.007Z" transform="translate(0.003 0)"/>
  <path id="Path_691" data-name="Path 691" class="cls-1" d="M14.742,5.525C9.753,5.86,4.675,10.416,5.5,15.726c.785,5.078,6.09,8.315,10.954,8.217,5.4-.111,9.01-3.772,8.252-9.287C24.024,9.671,19.892,5.374,14.742,5.525Zm7.972,14.686c-1.4,2.011-3.932,2.679-6.26,2.729-4.151.085-8.752-2.461-9.831-6.7-1.248-4.9,3.473-9.4,8.119-9.71,4.2-.12,7.6,3,8.7,6.968C24.038,15.614,24.024,18.334,22.714,20.211Z" transform="translate(-2.997 -3.06)"/>
  <path id="Path_692" data-name="Path 692" class="cls-1" d="M13.337,12.442A7.334,7.334,0,0,0,9.4,18.4c0,.74.116,1.868.994,2.087a1.272,1.272,0,0,0,1.431-.963c.187-.557.116-1.177.281-1.748a5.642,5.642,0,0,1,1.253-2.131c.655-.74,1.761-1.132,2.332-1.886a1.235,1.235,0,0,0-.058-1.556C15.031,11.622,13.952,12.13,13.337,12.442Zm.334,1.538a8,8,0,0,0-2.006,2.3,6.1,6.1,0,0,0-.629,1.623,4.523,4.523,0,0,1-.085.548c-.165.486-.557,1.311-.553-.054a6.264,6.264,0,0,1,2.385-4.414c.223-.178,1.948-1.315,1.908-.713A7.179,7.179,0,0,1,13.671,13.98Z" transform="translate(-5.207 -6.615)"/>
  <path id="Path_693" data-name="Path 693" class="cls-1" d="M26.113,10.017c-.009,0-.013.009-.022.009a.455.455,0,0,0-.1.04,1.456,1.456,0,0,0-.424,2.211,1.408,1.408,0,0,0,2.243-.178,1.494,1.494,0,0,0-.027-1.552A1.315,1.315,0,0,0,26.113,10.017Zm.776,1.632a.392.392,0,0,1-.41.094.436.436,0,0,1,0-.785c.183-.062.312-.071.415.058a.707.707,0,0,1,.12.473c0,.013,0,.027-.009.031A.747.747,0,0,1,26.889,11.648Zm.129-.183c0-.031,0-.022,0,0Z" transform="translate(-13.98 -5.491)"/>
</svg>
