<svg id="icono_correo" xmlns="http://www.w3.org/2000/svg" viewBox="0 0 47.473 42.486">
  <defs>
    <style>
      .cls-1 {
        fill: #5d5d5d;
      }
    </style>
  </defs>
  <path id="Path_679" data-name="Path 679" class="cls-1" d="M46.641.034C38.884,2.9,31.6,6.873,24.1,10.328,16.092,14.02,8.263,18.077.323,21.9a.675.675,0,0,0,.161,1.222c5.207.736,10.317,1.859,15.43,3.045.1,5.221-.054,10.442.036,15.667a.677.677,0,0,0,1.248.339c2.711-3.888,5.444-7.775,8.351-11.52,4.039,2.434,8.092,4.869,11.931,7.6a.671.671,0,0,0,.981-.4C39.646,31.6,40.908,25.513,42.669,19.4,44.434,13.262,46.1,7.1,47.461.854,47.56.4,47.149-.154,46.641.034ZM20.475,26.392a.753.753,0,0,0-.321.535,7.943,7.943,0,0,0-.651,1.815c-.789,3.165-1.36,6.407-2.247,9.554,0-4.191.076-8.386-.013-12.577,7.936-7,16.122-13.794,24.432-20.37q-7.43,7.323-14.864,14.646-2.294,2.254-4.592,4.507A13.941,13.941,0,0,0,20.475,26.392ZM43.32,2.776c-9.1,7.138-18.061,14.543-26.728,22.18-4.552-1.061-9.1-2.073-13.714-2.813C9.944,18.7,16.93,15.108,24.064,11.813,30.493,8.844,36.779,5.5,43.32,2.776ZM18.3,38.273c.767-2.791,1.3-5.653,1.975-8.462a13.6,13.6,0,0,1,.58-2.015q1.766,1.1,3.549,2.171C22.3,32.682,20.283,35.465,18.3,38.273ZM41.38,19.049c-1.672,5.8-2.889,11.583-4.026,17.495-5.109-3.553-10.553-6.63-15.841-9.911l.116-.156c.615-.731,1.4-1.373,2.087-2.042q2.321-2.274,4.637-4.552,8.66-8.507,17.294-17.04C44.39,8.286,42.923,13.676,41.38,19.049Z" transform="translate(-0.003 0.004)"/>
  <path id="Path_680" data-name="Path 680" class="cls-1" d="M25.984,44.409q2.408-1.331,4.815-2.657c.566-.312.058-1.177-.508-.865q-2.408,1.331-4.815,2.657C24.914,43.856,25.417,44.726,25.984,44.409Z" transform="translate(-13.983 -22.619)"/>
  <path id="Path_681" data-name="Path 681" class="cls-1" d="M34.021,45.723q-1.13.589-2.265,1.177c-.575.3-.067,1.164.508.865q1.13-.589,2.265-1.177C35.1,46.289,34.6,45.424,34.021,45.723Z" transform="translate(-17.459 -25.302)"/>
</svg>
