<svg xmlns="http://www.w3.org/2000/svg" viewBox="0 0 29.86 29.86">
  <defs>
    <style>
      .cls-1 {
        fill: #fff;
      }

      .cls-2 {
        fill: #0a4a6e;
      }
    </style>
  </defs>
  <g id="Group_67" data-name="Group 67" transform="translate(-1577 -3269)">
    <circle id="Ellipse_50" data-name="Ellipse 50" class="cls-1" cx="14.93" cy="14.93" r="14.93" transform="translate(1577 3269)"/>
    <g id="Group_16" data-name="Group 16" transform="translate(1582.712 3274.712)">
      <path id="Path_308" data-name="Path 308" class="cls-2" d="M23.677,16.926c.049.628.125,1.01.75,1.254a6.554,6.554,0,0,0,2.08.174,5.671,5.671,0,0,0,2.451-.254c.992-.441.587-2.1.592-3.033q.016-2.87.029-5.741l.031-5.816c.005-.823.426-2.867-.53-3.227A10.162,10.162,0,0,0,26.663.064,7.356,7.356,0,0,0,24.4.116c-1.036.283-.628,1.768-.634,2.62-.026,3.651-.205,7.309-.151,10.96A20.332,20.332,0,0,0,23.677,16.926Zm.943.338" transform="translate(-17.453 -0.002)"/>
      <path id="Path_309" data-name="Path 309" class="cls-2" d="M1.444,23.677c-.628.049-1.01.125-1.254.75a6.554,6.554,0,0,0-.174,2.08,5.671,5.671,0,0,0,.254,2.451c.441.992,2.1.587,3.033.592q2.87.016,5.741.029l5.816.031c.823.005,2.867.426,3.227-.53a10.162,10.162,0,0,0,.218-2.417,7.356,7.356,0,0,0-.052-2.264c-.283-1.036-1.768-.628-2.62-.634-3.651-.026-7.309-.205-10.96-.151A20.338,20.338,0,0,0,1.444,23.677Zm-.335.943" transform="translate(0.003 -17.454)"/>
    </g>
  </g>
</svg>
