<svg id="icono_telefono" xmlns="http://www.w3.org/2000/svg" viewBox="0 0 28.928 46.666">
  <defs>
    <style>
      .cls-1 {
        fill: #5d5d5d;
      }
    </style>
  </defs>
  <path id="Path_682" data-name="Path 682" class="cls-1" d="M28.868,34.554c0-3.09-.062-6.179-.156-9.265-.174-5.881-.415-11.766-.767-17.637C27.7,3.577,26.139,1.111,21.9.465A69.2,69.2,0,0,0,7.4.3c-2.14.129-4.32.339-5.618,2.269C.512,4.46.459,7.175.245,9.368-.344,15.525.33,21.8.187,27.987.174,32.053.04,36.159.4,40.211c.227,2.532.758,4.476,3.192,5.769,1.69.892,4.271.655,6.081.669,3.237.022,6.465-.192,9.7-.263,3.687-.08,8.614.094,9.34-4.614A48.141,48.141,0,0,0,28.868,34.554ZM27.388,41.5c-.651,3.411-3.848,3.5-6.688,3.531-4.556.04-9.117.477-13.674.21-1.837-.107-4-.58-4.864-2.443a11.272,11.272,0,0,1-.517-3.906c-.205-3.629-.134-7.272-.12-10.905.094-4.053.067-8.1-.1-12.149a46.764,46.764,0,0,1,.161-6.469c.241-2.483.263-6.268,3.041-7.356C6.446,1.29,9.041,1.539,11,1.473c2.011-.071,4.026-.094,6.037-.027A25.443,25.443,0,0,1,22.827,2c2.925.8,3.611,2.849,3.785,5.653.557,9.1.918,18.235.923,27.343A36.337,36.337,0,0,1,27.388,41.5Z" transform="translate(0.001 -0.002)"/>
  <path id="Path_683" data-name="Path 683" class="cls-1" d="M25.829,9.368q2.662-.127,5.328-.125a.5.5,0,0,0,0-1q-2.668-.007-5.328.125C25.187,8.4,25.183,9.4,25.829,9.368Z" transform="translate(-14.046 -4.567)"/>
  <path id="Path_684" data-name="Path 684" class="cls-1" d="M42.295,9.165l.031-.031a.5.5,0,0,0-.709-.709l-.031.031C41.127,8.911,41.84,9.62,42.295,9.165Z" transform="translate(-22.963 -4.587)"/>
  <path id="Path_685" data-name="Path 685" class="cls-1" d="M46.847,9.225l.031-.031a.5.5,0,0,0-.709-.709l-.031.031A.5.5,0,0,0,46.847,9.225Z" transform="translate(-25.486 -4.621)"/>
  <path id="Path_686" data-name="Path 686" class="cls-1" d="M27.941,92.344c-1.4-.013-4.115-.33-4.289,1.667-.161,1.841,2.8,1.641,3.946,1.605,1.1-.036,3.8.1,3.879-1.52C31.57,92.01,29.337,92.322,27.941,92.344Zm2.341,1.864c-.441.513-2.26.4-2.916.41-.464,0-2.39.094-2.541-.241-.575-1.284,2.63-1.034,3.112-1.03C28.387,93.338,31.2,93.151,30.282,94.207Z" transform="translate(-13.103 -51.158)"/>
  <path id="Path_687" data-name="Path 687" class="cls-1" d="M28.7,15.292h0a.211.211,0,0,0-.031-.054.44.44,0,0,0-.424-.259c-7.49.062-14.985.388-22.479.276a.44.44,0,0,0-.437.281.034.034,0,0,0-.009.018c0,.013-.009.031-.013.045a.447.447,0,0,0-.04.156c-.33,5.261.2,10.531.089,15.8-.116,5.6-.437,11.186-.268,16.79a.53.53,0,0,0,.076.245.442.442,0,0,0,.428.259c3.914-.1,7.816.054,11.73-.165,3.964-.218,7.909.049,11.868-.058a.546.546,0,0,0,.223-.058.419.419,0,0,0,.276-.441c-.517-10.87-.432-21.77-.945-32.64A.505.505,0,0,0,28.7,15.292ZM17.324,47.678c-3.75.2-7.49.076-11.24.156-.138-5.435.165-10.852.276-16.282.107-5.1-.379-10.2-.111-15.292,7.174.089,14.347-.205,21.516-.276.482,10.535.424,21.1.905,31.641C24.885,47.7,21.113,47.477,17.324,47.678Z" transform="translate(-2.794 -8.302)"/>
  <path id="Path_688" data-name="Path 688" class="cls-1" d="M15.358,23.559A10.1,10.1,0,0,0,12.973,26.4a.5.5,0,0,0,.865.508,9.4,9.4,0,0,1,2.229-2.639C16.566,23.857,15.853,23.153,15.358,23.559Z" transform="translate(-7.15 -12.989)"/>
  <path id="Path_689" data-name="Path 689" class="cls-1" d="M20.882,24.294l-1.819,2.14c-.415.49.29,1.2.709.709L21.591,25C22.006,24.513,21.3,23.8,20.882,24.294Z" transform="translate(-10.494 -13.372)"/>
</svg>
