<svg xmlns="http://www.w3.org/2000/svg" viewBox="0 0 34.885 34.885">
  <defs>
    <style>
      .cls-1 {
        fill: #0a4a6e;
      }

      .cls-2 {
        fill: #fff;
        fill-rule: evenodd;
      }
    </style>
  </defs>
  <g id="IGColor_header" transform="translate(-998 -644.558)">
    <circle id="Ellipse_164" data-name="Ellipse 164" class="cls-1" cx="17.442" cy="17.442" r="17.442" transform="translate(998 644.558)"/>
    <path id="Path_715" data-name="Path 715" class="cls-2" d="M9.169,1.63a28.113,28.113,0,0,1,3.667.1,4.725,4.725,0,0,1,1.732.306A3.578,3.578,0,0,1,16.3,3.769,4.725,4.725,0,0,1,16.605,5.5c0,.917.1,1.222.1,3.667a28.113,28.113,0,0,1-.1,3.667,4.725,4.725,0,0,1-.306,1.732A3.578,3.578,0,0,1,14.568,16.3a4.725,4.725,0,0,1-1.732.306c-.917,0-1.222.1-3.667.1a28.113,28.113,0,0,1-3.667-.1A4.725,4.725,0,0,1,3.769,16.3a3.578,3.578,0,0,1-1.732-1.732,4.725,4.725,0,0,1-.306-1.732c0-.917-.1-1.222-.1-3.667a28.113,28.113,0,0,1,.1-3.667,4.725,4.725,0,0,1,.306-1.732,3.659,3.659,0,0,1,.713-1.019,1.722,1.722,0,0,1,1.019-.713A4.725,4.725,0,0,1,5.5,1.732a28.113,28.113,0,0,1,3.667-.1m0-1.63A30.1,30.1,0,0,0,5.4.1,6.289,6.289,0,0,0,3.158.509a3.988,3.988,0,0,0-1.63,1.019A3.988,3.988,0,0,0,.509,3.158,4.642,4.642,0,0,0,.1,5.4,30.1,30.1,0,0,0,0,9.169a30.1,30.1,0,0,0,.1,3.769,6.289,6.289,0,0,0,.407,2.241,3.988,3.988,0,0,0,1.019,1.63,3.988,3.988,0,0,0,1.63,1.019,6.289,6.289,0,0,0,2.241.407,30.1,30.1,0,0,0,3.769.1,30.1,30.1,0,0,0,3.769-.1,6.289,6.289,0,0,0,2.241-.407,4.274,4.274,0,0,0,2.649-2.649,6.289,6.289,0,0,0,.407-2.241c0-1.019.1-1.324.1-3.769a30.1,30.1,0,0,0-.1-3.769,6.289,6.289,0,0,0-.407-2.241,3.988,3.988,0,0,0-1.019-1.63A3.988,3.988,0,0,0,15.179.509,6.289,6.289,0,0,0,12.938.1,30.1,30.1,0,0,0,9.169,0m0,4.482A4.611,4.611,0,0,0,4.482,9.169,4.686,4.686,0,1,0,9.169,4.482m0,7.742A3,3,0,0,1,6.112,9.169,3,3,0,0,1,9.169,6.112a3,3,0,0,1,3.056,3.056,3,3,0,0,1-3.056,3.056m4.89-9.067a1.121,1.121,0,1,0,1.121,1.121,1.131,1.131,0,0,0-1.121-1.121" transform="translate(1006.197 652.956)"/>
  </g>
</svg>
