<svg xmlns="http://www.w3.org/2000/svg" viewBox="0 0 75.967 75.967">
  <defs>
    <style>
      .cls-1 {
        fill: #fff;
      }

      .cls-2 {
        fill: none;
        stroke: #fff;
        stroke-miterlimit: 10;
        stroke-width: 3px;
      }
    </style>
  </defs>
  <g id="insumos" transform="translate(1.5 1.5)">
    <g id="Group_13" data-name="Group 13" transform="translate(12.102 17.757)">
      <path id="Path_302" data-name="Path 302" class="cls-1" d="M54.231,96.447h-.006a3.064,3.064,0,1,0-.391,6.065c1.709.055,3.49-1.048,3.413-2.928A3.208,3.208,0,0,0,54.231,96.447Zm-.094,4.565c-.882.05-1.759-.2-2.007-1.136a1.6,1.6,0,0,1,1.9-1.957h.028a1.578,1.578,0,0,0,.171.028,1.635,1.635,0,0,1,1.478,1.417C55.913,100.361,55.053,100.962,54.137,101.012Z" transform="translate(-35.617 -61.841)"/>
      <path id="Path_303" data-name="Path 303" class="cls-1" d="M94.045,96.253a2.89,2.89,0,0,0-3.187,3.071,3.324,3.324,0,0,0,1.3,2.553,4.365,4.365,0,0,0,2.3.518c1.737.127,2.773-1.842,2.465-3.38C96.592,97.317,95.887,96.275,94.045,96.253Zm.419,4.637c-1.026-.044-1.9-.176-2.079-1.395a1.427,1.427,0,0,1,1.66-1.742c.91.011,1.114.309,1.318,1.136C95.545,99.628,95.506,100.934,94.464,100.89Z" transform="translate(-53.69 -61.758)"/>
      <path id="Path_304" data-name="Path 304" class="cls-1" d="M69.852,43.429c-4.5-.921-9.428-.667-14-1.026-6.947-.54-13.867-.965-20.825-1.219a13.164,13.164,0,0,0-.81-2.514c-.689-1.5-2.161-1.814-3.606-2.272a1.191,1.191,0,0,0-.733-1.3,15.837,15.837,0,0,0-2.652-1.037c-1.147-.369-3.81-.91-3.771,1.1.028,1.549,2.062,2.145,3.242,2.547.987.336,2.4.684,3.248.055a5.235,5.235,0,0,1,2.432,1.2c.822.871.86,2.1,1.13,3.253.568,2.448,1.213,4.874,1.875,7.295,1.108,4.058,2.31,8.094,3.231,12.2a3.021,3.021,0,0,0-2.1,2.939c.055,2.222,2.178,2.713,4,2.757,8.491.2,17,.066,25.489.088a.75.75,0,0,0,0-1.5c-5.023-.011-10.051.011-15.074,0q-4.011-.008-8.017-.055c-1.048-.011-3.81.419-4.593-.546a1.53,1.53,0,0,1,1.2-2.371c7.245.072,14.5-.028,21.74.055,1.77.022,4.808.342,6.07-1.241a7.607,7.607,0,0,0,.943-2.481c.54-1.709,1.1-3.407,1.654-5.111.833-2.591,2-5.392,2.277-8.122C72.355,44.416,71.484,43.765,69.852,43.429ZM26.874,36.586c-.447-.16-1.919-.551-2.145-1.059-.176-.386.248-.678.524-.739a1.4,1.4,0,0,1,.524.05,9.731,9.731,0,0,1,1.423.4c.529.182,1.048.38,1.566.6.535.226.8.259.651.866C29.134,37.447,27.353,36.752,26.874,36.586Zm43.795,8.822c.408.816-.524,2.928-.761,3.744-.066.221-.138.441-.2.667q-3.151-.165-6.291-.38.562-2.531,1.246-5.017C66.77,44.438,70.194,44.465,70.668,45.408ZM68.231,54.55c-.116.358-.232.711-.347,1.07q-2.853-.116-5.7-.2c.32-1.627.64-3.253.992-4.869q3.1.215,6.2.38Q68.816,52.747,68.231,54.55Zm-12.29,7.1q.141-2.63.325-5.26,2.283.058,4.56.121c-.331,1.709-.667,3.413-1.02,5.111Q57.879,61.635,55.941,61.646Zm.4-6.385c.121-1.731.254-3.457.4-5.188q2.647.215,5.3.4c-.347,1.632-.673,3.27-.992,4.907Q58.7,55.316,56.344,55.261ZM40.1,61.525c-.419-1.9-.893-3.777-1.395-5.651,1.439.061,2.878.11,4.317.16.391,1.858.822,3.705,1.312,5.536Q42.218,61.552,40.1,61.525ZM36.644,48.43q2.473.182,4.946.38c.4,2.029.783,4.064,1.2,6.087-1.461-.05-2.922-.1-4.383-.16C37.818,52.631,37.223,50.536,36.644,48.43ZM45.5,61.574c-.5-1.819-.926-3.661-1.323-5.5q2.382.074,4.764.132c.121,1.808.248,3.611.364,5.42-1.268-.011-2.542-.022-3.81-.039C45.5,61.58,45.5,61.58,45.5,61.574Zm-1.56-6.638c-.414-2.007-.8-4.019-1.191-6.026q2.853.232,5.707.474c.143,1.9.276,3.793.408,5.69C47.224,55.035,45.581,54.985,43.938,54.936Zm-1.411-7.173c-.314-1.6-.645-3.2-1-4.791q3.242.165,6.478.375c.132,1.632.248,3.27.369,4.9C46.425,48.088,44.473,47.922,42.527,47.763Zm7.063,1.715c2.012.171,4.019.336,6.032.5-.143,1.748-.281,3.5-.4,5.249-1.742-.044-3.485-.083-5.227-.127C49.865,53.232,49.728,51.352,49.59,49.477ZM63.506,44.41c-.447,1.638-.849,3.292-1.219,4.957-1.82-.127-3.633-.265-5.453-.414.138-1.649.292-3.3.452-4.951q3.035.215,6.07.4C63.4,44.4,63.456,44.4,63.506,44.41Zm-7.339-.485c-.16,1.643-.309,3.292-.452,4.935q-3.11-.248-6.208-.518c-.121-1.643-.243-3.286-.375-4.929,2.051.138,4.1.281,6.153.441C55.578,43.886,55.87,43.9,56.167,43.925ZM35.337,42.7q2.514.091,5.017.215c.358,1.577.689,3.165,1,4.753-1.676-.132-3.352-.265-5.028-.386-.094-.342-.187-.689-.276-1.031C35.767,45.155,35.569,43.925,35.337,42.7Zm15.1,18.934c-.116-1.8-.243-3.6-.364-5.4,1.693.044,3.38.083,5.073.121Q54.96,59,54.817,61.651C53.356,61.646,51.894,61.646,50.433,61.635ZM66.71,59.269c-.722,2.288-2.012,2.233-4.317,2.288-.474.011-.954.017-1.434.028.347-1.676.678-3.363,1-5.05q2.779.083,5.558.193C67.25,57.577,66.974,58.426,66.71,59.269Z" transform="translate(-23.449 -33.706)"/>
      <path id="Path_305" data-name="Path 305" class="cls-1" d="M46.876,99.079c.287-.656-.684-1.23-.97-.568a4,4,0,0,0,.573,4.24c.458.562,1.246-.237.794-.794A2.822,2.822,0,0,1,46.876,99.079Z" transform="translate(-33.362 -62.648)"/>
      <path id="Path_306" data-name="Path 306" class="cls-1" d="M43.2,100.832a.562.562,0,1,0-1.125,0,2.891,2.891,0,0,0,.314,1.649.562.562,0,0,0,.97-.568A1.915,1.915,0,0,1,43.2,100.832Z" transform="translate(-31.798 -63.569)"/>
    </g>
    <circle id="Ellipse_47" data-name="Ellipse 47" class="cls-2" cx="36.484" cy="36.484" r="36.484" transform="translate(0 0)"/>
  </g>
</svg>
