<svg xmlns="http://www.w3.org/2000/svg" viewBox="0 0 75.967 75.967">
  <defs>
    <style>
      .cls-1 {
        fill: #fff;
      }

      .cls-2 {
        fill: none;
        stroke: #fff;
        stroke-miterlimit: 10;
        stroke-width: 3px;
      }
    </style>
  </defs>
  <g id="nube" transform="translate(1.5 1.5)">
    <g id="Group_11" data-name="Group 11" transform="translate(8.767 11.501)">
      <path id="Path_297" data-name="Path 297" class="cls-1" d="M64.884,42.374a6.991,6.991,0,0,0-2.5-8.86,6.529,6.529,0,0,0-8.193.9c-.447-9.191-12.433-14-20.621-11.308-9.34,3.077-11.761,13.337-7.383,21.128a7.033,7.033,0,0,0-8.7,8.033c1,7.245,8.508,7.592,14.319,7.432a.828.828,0,0,0,0-1.654c-3.893.1-9.037.529-11.557-3.066a6.763,6.763,0,0,1-.584-6.71c1.649-3.11,5.767-3.407,8.353-1.389a.827.827,0,0,0,1.169-1.169C23.317,38.773,24.816,27.735,34,24.7c7.774-2.564,20.505,2.387,18.316,12.378-.187.866,1.086,1.527,1.511.64,1.246-2.613,3.8-4.455,6.776-3.225,3.38,1.395,4.527,6.048,1.676,8.585-.6.529.033,1.687.8,1.384,6.765-2.652,10.961,7.5,5.326,11.408-2.845,1.974-6.881,2.316-10.261,2.244a.828.828,0,0,0,0,1.654c5.166.1,12.483-.926,14.3-6.649C74.086,48,70.055,42.115,64.884,42.374Z" transform="translate(-17.401 -22.358)"/>
      <path id="Path_298" data-name="Path 298" class="cls-1" d="M53.3,70.772a.619.619,0,0,0-.877,0c-1.593,1.9-3.225,3.771-4.714,5.762-.292.386.1.937.535.932.513-.006,1.02,0,1.533,0,.033,3.2-.055,6.4-.006,9.594a.563.563,0,0,0,.287.5.589.589,0,0,0,.336.121,48,48,0,0,0,5.117,0,.627.627,0,0,0,.618-.618c-.055-3.192.011-6.39,0-9.583.447.011.888.011,1.345-.017.414-.022.844-.535.535-.932C56.5,74.571,54.893,72.68,53.3,70.772ZM51.011,86.464c-.033-3.209.055-6.412.006-9.621a.627.627,0,0,0-.618-.618c-.3.006-.59,0-.888,0,1.086-1.378,2.222-2.713,3.358-4.053,1.13,1.351,2.261,2.7,3.358,4.069-.232-.006-.469-.006-.706-.017a.624.624,0,0,0-.618.618c.022,3.209-.044,6.418-.006,9.621C53.6,86.524,52.3,86.513,51.011,86.464Z" transform="translate(-30.953 -43.997)"/>
      <path id="Path_299" data-name="Path 299" class="cls-1" d="M78.637,86.151c-.458-.022-.9-.022-1.345-.017.011-3.192-.055-6.39,0-9.583a.627.627,0,0,0-.618-.618,48,48,0,0,0-5.117,0,.571.571,0,0,0-.331.121.563.563,0,0,0-.287.5c-.05,3.2.039,6.4.006,9.594-.513,0-1.02.006-1.533,0-.43-.006-.827.546-.535.932,1.494,1.985,3.154,3.826,4.714,5.762a.619.619,0,0,0,.877,0c1.577-1.847,3.038-3.788,4.62-5.635A.633.633,0,0,0,78.637,86.151Zm-7.973,1.241c.292,0,.59-.006.882,0a.62.62,0,0,0,.618-.618c.05-3.2-.039-6.412-.006-9.621,1.29-.05,2.586-.061,3.876-.006-.039,3.209.028,6.418.006,9.621a.624.624,0,0,0,.618.618c.226-.011.441-.011.662-.017-1.108,1.351-2.189,2.724-3.308,4.064C72.9,90.082,71.756,88.764,70.665,87.391Z" transform="translate(-40.451 -46.364)"/>
      <path id="Path_300" data-name="Path 300" class="cls-1" d="M45.461,32.527c.788-.083.794-1.323,0-1.241-4.527.48-8.326,5.508-7.25,9.974.187.777,1.384.447,1.2-.331C38.541,37.324,41.761,32.913,45.461,32.527Z" transform="translate(-26.654 -26.362)"/>
      <path id="Path_301" data-name="Path 301" class="cls-1" d="M48.929,35.962a6.179,6.179,0,0,0-3.17,1.56c-.6.535.287,1.411.877.877a5.058,5.058,0,0,1,2.624-1.241C50.043,37.032,49.707,35.836,48.929,35.962Z" transform="translate(-30.035 -28.457)"/>
    </g>
    <circle id="Ellipse_46" data-name="Ellipse 46" class="cls-2" cx="36.484" cy="36.484" r="36.484" transform="translate(0 0)"/>
  </g>
</svg>
