<svg xmlns="http://www.w3.org/2000/svg" viewBox="0 0 75.825 75.825">
  <defs>
    <style>
      .cls-1 {
        fill: #fff;
      }

      .cls-2 {
        fill: none;
        stroke: #fff;
        stroke-miterlimit: 10;
        stroke-width: 3px;
      }
    </style>
  </defs>
  <g id="satisfaccion" transform="translate(1.5 1.5)">
    <g id="Group_9" data-name="Group 9" transform="translate(10.784 10.321)">
      <path id="Path_294" data-name="Path 294" class="cls-1" d="M72.039,37.686c-.985-2.68-4.072-2.168-6.46-2.251-3.61-.127-7.247.248-10.846.061-.858-3.032-1.585-6.1-2.41-9.146-.7-2.6-1.943-5.547-4.958-6.031-2.454-.4-3.841,1.128-4.655,3.247-1.53,3.973-2.41,8.1-4.127,12.024-4.028-.011-8.117-.077-12.128.149-1.865.1-4.309.259-5.085,2.256-.886,2.267.545,4.028,2.223,5.3,1.4,1.057,2.884,2,4.309,3.027,1.623,1.167,3.907,2.383,5.151,3.9,1.227,1.5-.66,4.666-1.266,6.345a48.178,48.178,0,0,0-1.854,5.475c-.484,2.108-.66,5.3,1.464,6.686s4.958-1.255,6.592-2.427c3.016-2.157,5.806-4.606,8.931-6.614A77.114,77.114,0,0,0,55.734,67.1c1.832,1.3,4.512,2.873,6.725,1.414,2.031-1.337,1.932-4.056,1.271-6.1-1.222-3.764-2.443-7.517-3.621-11.3,3.1-2.229,6.163-4.545,9.179-6.884C71.384,42.605,73.063,40.465,72.039,37.686Zm-6.9,7.55c-2.135,1.623-4.232,3.291-6.416,4.854a.851.851,0,0,0-.38.93c.787,2.531,1.354,5.123,2.19,7.638.666,2,2.636,4.98,1.8,7.115-2.009,5.162-12.7-5.717-14.737-7.715a.833.833,0,0,0-1-.127,63.168,63.168,0,0,0-5.668,4.056c-1.976,1.546-4.375,3.984-6.785,4.848a2.1,2.1,0,0,1-2.685-.842,4.285,4.285,0,0,1-.176-2.108,14.687,14.687,0,0,1,.98-3.791c1.079-3.109,2.24-6.191,3.357-9.283a.808.808,0,0,0-.215-.8c-1.838-1.5-3.7-2.955-5.618-4.358-1.827-1.337-5.828-3.142-6.6-5.31-1.326-3.747,4.826-2.961,6.983-2.988,2.966-.039,5.927-.116,8.893-.116a.655.655,0,0,0,.776-.407,63.886,63.886,0,0,0,2.674-6.945c.726-2.267,1.519-8.623,4.87-7.759,3.192.825,3.544,5.591,4.27,8.26.556,2.036,1.062,4.089,1.651,6.114a.856.856,0,0,0,.8.605c2.075.154,4.149-.017,6.229-.055,2.4-.044,5.58-.484,7.9.171C74.647,39.039,66.767,44,65.139,45.236Z" transform="translate(-21.098 -20.256)"/>
      <path id="Path_295" data-name="Path 295" class="cls-1" d="M44.98,55.683A14.366,14.366,0,0,0,41.288,58.3c-.572.556.3,1.431.875.875a13.207,13.207,0,0,1,3.445-2.421C46.317,56.4,45.69,55.33,44.98,55.683Z" transform="translate(-30.094 -36.156)"/>
      <path id="Path_296" data-name="Path 296" class="cls-1" d="M51.465,57.192a28.093,28.093,0,0,0-5.343,2.839c-.655.446-.039,1.519.627,1.068A26.737,26.737,0,0,1,51.8,58.386C52.522,58.094,52.2,56.894,51.465,57.192Z" transform="translate(-32.226 -36.845)"/>
    </g>
    <circle id="Ellipse_45" data-name="Ellipse 45" class="cls-2" cx="36.413" cy="36.413" r="36.413" transform="translate(0 0)"/>
  </g>
</svg>
