<svg xmlns="http://www.w3.org/2000/svg" viewBox="0 0 34.885 34.885">
  <defs>
    <style>
      .cls-1 {
        fill: #0a4a6e;
      }

      .cls-2 {
        fill: #fff;
        fill-rule: evenodd;
      }
    </style>
  </defs>
  <g id="TWColor_header" transform="translate(-946.496 -644.558)">
    <circle id="Ellipse_165" data-name="Ellipse 165" class="cls-1" cx="17.442" cy="17.442" r="17.442" transform="translate(946.496 644.558)"/>
    <path id="Path_714" data-name="Path 714" class="cls-2" d="M43.807,16.874a10.6,10.6,0,0,0,10.7-10.7V5.667a8.281,8.281,0,0,0,1.834-1.936,8.457,8.457,0,0,1-2.139.611,3.964,3.964,0,0,0,1.63-2.037,9.344,9.344,0,0,1-2.343.917A3.638,3.638,0,0,0,50.734,2a3.827,3.827,0,0,0-3.769,3.769,1.986,1.986,0,0,0,.1.815,10.533,10.533,0,0,1-7.742-3.973,3.9,3.9,0,0,0-.509,1.936A4.048,4.048,0,0,0,40.445,7.7,3.434,3.434,0,0,1,38.713,7.2h0a3.723,3.723,0,0,0,3.056,3.667,3.141,3.141,0,0,1-1.019.1,1.734,1.734,0,0,1-.713-.1A3.859,3.859,0,0,0,43.6,13.512a7.692,7.692,0,0,1-4.686,1.63,2.82,2.82,0,0,1-.917-.1,9.616,9.616,0,0,0,5.807,1.834" transform="translate(916.829 652.266)"/>
  </g>
</svg>
